solid ASCII
  facet normal 1.000000e+00 0.000000e+00 -0.000000e+00
    outer loop
      vertex   1.200000e+01 1.200000e+01 0.000000e+00
      vertex   1.200000e+01 1.200000e+01 3.000000e-01
      vertex   1.200000e+01 0.000000e+00 0.000000e+00
    endloop
  endfacet
  facet normal 1.000000e+00 0.000000e+00 0.000000e+00
    outer loop
      vertex   1.200000e+01 0.000000e+00 0.000000e+00
      vertex   1.200000e+01 1.200000e+01 3.000000e-01
      vertex   1.200000e+01 0.000000e+00 3.000000e-01
    endloop
  endfacet
  facet normal 0.000000e+00 0.000000e+00 1.000000e+00
    outer loop
      vertex   1.200000e+01 1.200000e+01 3.000000e-01
      vertex   4.064304e-11 1.200000e+01 3.000000e-01
      vertex   1.200000e+01 0.000000e+00 3.000000e-01
    endloop
  endfacet
  facet normal 0.000000e+00 0.000000e+00 1.000000e+00
    outer loop
      vertex   1.200000e+01 0.000000e+00 3.000000e-01
      vertex   4.064304e-11 1.200000e+01 3.000000e-01
      vertex   4.064304e-11 0.000000e+00 3.000000e-01
    endloop
  endfacet
  facet normal 0.000000e+00 1.000000e+00 0.000000e+00
    outer loop
      vertex   1.200000e+01 1.200000e+01 3.000000e-01
      vertex   1.200000e+01 1.200000e+01 0.000000e+00
      vertex   4.064304e-11 1.200000e+01 3.000000e-01
    endloop
  endfacet
  facet normal 0.000000e+00 1.000000e+00 0.000000e+00
    outer loop
      vertex   4.064304e-11 1.200000e+01 3.000000e-01
      vertex   1.200000e+01 1.200000e+01 0.000000e+00
      vertex   4.064304e-11 1.200000e+01 0.000000e+00
    endloop
  endfacet
  facet normal -0.000000e+00 -0.000000e+00 -1.000000e+00
    outer loop
      vertex   1.200000e+01 1.200000e+01 0.000000e+00
      vertex   1.200000e+01 0.000000e+00 0.000000e+00
      vertex   4.064304e-11 1.200000e+01 0.000000e+00
    endloop
  endfacet
  facet normal 0.000000e+00 0.000000e+00 -1.000000e+00
    outer loop
      vertex   4.064304e-11 1.200000e+01 0.000000e+00
      vertex   1.200000e+01 0.000000e+00 0.000000e+00
      vertex   4.064304e-11 0.000000e+00 0.000000e+00
    endloop
  endfacet
  facet normal 0.000000e+00 -1.000000e+00 0.000000e+00
    outer loop
      vertex   1.200000e+01 0.000000e+00 0.000000e+00
      vertex   1.200000e+01 0.000000e+00 3.000000e-01
      vertex   4.064304e-11 0.000000e+00 0.000000e+00
    endloop
  endfacet
  facet normal 0.000000e+00 -1.000000e+00 0.000000e+00
    outer loop
      vertex   4.064304e-11 0.000000e+00 0.000000e+00
      vertex   1.200000e+01 0.000000e+00 3.000000e-01
      vertex   4.064304e-11 0.000000e+00 3.000000e-01
    endloop
  endfacet
  facet normal -1.000000e+00 -0.000000e+00 -0.000000e+00
    outer loop
      vertex   4.064304e-11 1.200000e+01 3.000000e-01
      vertex   4.064304e-11 1.200000e+01 0.000000e+00
      vertex   4.064304e-11 0.000000e+00 3.000000e-01
    endloop
  endfacet
  facet normal -1.000000e+00 0.000000e+00 0.000000e+00
    outer loop
      vertex   4.064304e-11 0.000000e+00 3.000000e-01
      vertex   4.064304e-11 1.200000e+01 0.000000e+00
      vertex   4.064304e-11 0.000000e+00 0.000000e+00
    endloop
  endfacet
endsolid
